<?xml version="1.0" encoding="UTF-8"?>
<svg xmlns="http://www.w3.org/2000/svg" xmlns:xlink="http://www.w3.org/1999/xlink" width="375pt" height="374.999991pt" viewBox="0 0 375 374.999991" version="1.2">
<defs>
<clipPath id="clip1">
  <path d="M 4.949219 4.949219 L 370.199219 4.949219 L 370.199219 370.199219 L 4.949219 370.199219 Z M 4.949219 4.949219 "/>
</clipPath>
<clipPath id="clip2">
  <path d="M 370.199219 187.574219 C 370.199219 190.566406 370.128906 193.550781 369.980469 196.535156 C 369.835938 199.523438 369.613281 202.5 369.320312 205.476562 C 369.027344 208.449219 368.664062 211.414062 368.222656 214.371094 C 367.785156 217.328125 367.273438 220.273438 366.691406 223.203125 C 366.109375 226.136719 365.453125 229.050781 364.726562 231.949219 C 364 234.847656 363.203125 237.730469 362.335938 240.589844 C 361.46875 243.449219 360.53125 246.285156 359.523438 249.101562 C 358.519531 251.914062 357.441406 254.703125 356.300781 257.464844 C 355.15625 260.222656 353.945312 262.957031 352.667969 265.65625 C 351.390625 268.359375 350.046875 271.027344 348.636719 273.664062 C 347.226562 276.300781 345.753906 278.898438 344.21875 281.464844 C 342.683594 284.027344 341.082031 286.550781 339.421875 289.035156 C 337.761719 291.523438 336.042969 293.964844 334.261719 296.363281 C 332.480469 298.765625 330.644531 301.121094 328.746094 303.433594 C 326.851562 305.742188 324.898438 308.003906 322.890625 310.21875 C 320.882812 312.433594 318.824219 314.597656 316.710938 316.710938 C 314.597656 318.824219 312.433594 320.882812 310.21875 322.890625 C 308.003906 324.898438 305.742188 326.851562 303.433594 328.746094 C 301.121094 330.644531 298.765625 332.480469 296.363281 334.261719 C 293.964844 336.042969 291.523438 337.761719 289.035156 339.421875 C 286.550781 341.082031 284.027344 342.683594 281.464844 344.21875 C 278.898438 345.753906 276.300781 347.226562 273.664062 348.636719 C 271.027344 350.046875 268.359375 351.390625 265.65625 352.667969 C 262.957031 353.945312 260.222656 355.15625 257.464844 356.300781 C 254.703125 357.441406 251.914062 358.519531 249.101562 359.523438 C 246.285156 360.53125 243.449219 361.46875 240.589844 362.335938 C 237.730469 363.203125 234.847656 364 231.949219 364.726562 C 229.050781 365.453125 226.136719 366.109375 223.203125 366.691406 C 220.273438 367.273438 217.328125 367.785156 214.371094 368.222656 C 211.414062 368.664062 208.449219 369.027344 205.476562 369.320312 C 202.5 369.613281 199.523438 369.832031 196.535156 369.980469 C 193.550781 370.128906 190.566406 370.199219 187.574219 370.199219 C 184.585938 370.199219 181.601562 370.128906 178.613281 369.980469 C 175.628906 369.832031 172.648438 369.613281 169.675781 369.320312 C 166.699219 369.027344 163.734375 368.664062 160.777344 368.222656 C 157.824219 367.785156 154.878906 367.273438 151.949219 366.691406 C 149.015625 366.109375 146.101562 365.453125 143.203125 364.726562 C 140.300781 364 137.421875 363.203125 134.5625 362.335938 C 131.703125 361.46875 128.867188 360.53125 126.050781 359.523438 C 123.238281 358.519531 120.449219 357.441406 117.6875 356.300781 C 114.925781 355.15625 112.195312 353.945312 109.492188 352.667969 C 106.792969 351.390625 104.121094 350.046875 101.488281 348.636719 C 98.851562 347.226562 96.25 345.753906 93.6875 344.21875 C 91.125 342.683594 88.601562 341.082031 86.113281 339.421875 C 83.628906 337.761719 81.1875 336.042969 78.785156 334.261719 C 76.386719 332.480469 74.03125 330.644531 71.71875 328.746094 C 69.410156 326.851562 67.148438 324.898438 64.933594 322.890625 C 62.71875 320.882812 60.554688 318.824219 58.441406 316.710938 C 56.328125 314.597656 54.265625 312.433594 52.257812 310.21875 C 50.253906 308.003906 48.300781 305.742188 46.40625 303.433594 C 44.507812 301.121094 42.671875 298.765625 40.890625 296.363281 C 39.109375 293.964844 37.390625 291.523438 35.730469 289.035156 C 34.066406 286.550781 32.46875 284.027344 30.933594 281.464844 C 29.394531 278.898438 27.921875 276.300781 26.515625 273.664062 C 25.105469 271.027344 23.761719 268.359375 22.484375 265.65625 C 21.207031 262.957031 19.996094 260.222656 18.851562 257.464844 C 17.707031 254.703125 16.632812 251.914062 15.625 249.101562 C 14.621094 246.285156 13.683594 243.449219 12.816406 240.589844 C 11.945312 237.730469 11.148438 234.847656 10.421875 231.949219 C 9.699219 229.050781 9.042969 226.136719 8.460938 223.203125 C 7.875 220.273438 7.367188 217.328125 6.925781 214.371094 C 6.488281 211.414062 6.121094 208.449219 5.828125 205.476562 C 5.539062 202.5 5.316406 199.523438 5.171875 196.535156 C 5.023438 193.550781 4.949219 190.566406 4.949219 187.574219 C 4.949219 184.585938 5.023438 181.601562 5.171875 178.613281 C 5.316406 175.628906 5.539062 172.648438 5.828125 169.675781 C 6.121094 166.699219 6.488281 163.734375 6.925781 160.777344 C 7.367188 157.824219 7.875 154.878906 8.460938 151.949219 C 9.042969 149.015625 9.699219 146.101562 10.421875 143.203125 C 11.148438 140.300781 11.945312 137.421875 12.816406 134.5625 C 13.683594 131.703125 14.621094 128.863281 15.625 126.050781 C 16.632812 123.238281 17.707031 120.449219 18.851562 117.6875 C 19.996094 114.925781 21.207031 112.195312 22.484375 109.492188 C 23.761719 106.792969 25.105469 104.121094 26.515625 101.488281 C 27.921875 98.851562 29.394531 96.25 30.933594 93.6875 C 32.46875 91.125 34.066406 88.601562 35.730469 86.113281 C 37.390625 83.628906 39.109375 81.1875 40.890625 78.785156 C 42.671875 76.386719 44.507812 74.03125 46.40625 71.71875 C 48.300781 69.410156 50.253906 67.148438 52.257812 64.933594 C 54.265625 62.71875 56.328125 60.554688 58.441406 58.441406 C 60.554688 56.328125 62.71875 54.265625 64.933594 52.257812 C 67.148438 50.253906 69.410156 48.300781 71.71875 46.40625 C 74.03125 44.507812 76.386719 42.671875 78.785156 40.890625 C 81.1875 39.109375 83.628906 37.390625 86.113281 35.730469 C 88.601562 34.066406 91.125 32.46875 93.6875 30.933594 C 96.25 29.394531 98.851562 27.921875 101.488281 26.515625 C 104.121094 25.105469 106.792969 23.761719 109.492188 22.484375 C 112.195312 21.207031 114.925781 19.996094 117.6875 18.851562 C 120.449219 17.707031 123.238281 16.632812 126.050781 15.625 C 128.867188 14.621094 131.703125 13.683594 134.5625 12.816406 C 137.421875 11.945312 140.300781 11.148438 143.203125 10.421875 C 146.101562 9.699219 149.015625 9.042969 151.949219 8.460938 C 154.878906 7.875 157.824219 7.367188 160.777344 6.925781 C 163.734375 6.488281 166.699219 6.121094 169.675781 5.828125 C 172.648438 5.539062 175.628906 5.316406 178.613281 5.171875 C 181.601562 5.023438 184.585938 4.949219 187.574219 4.949219 C 190.566406 4.949219 193.550781 5.023438 196.535156 5.171875 C 199.523438 5.316406 202.5 5.539062 205.476562 5.828125 C 208.449219 6.121094 211.414062 6.488281 214.371094 6.925781 C 217.328125 7.367188 220.273438 7.875 223.203125 8.460938 C 226.136719 9.042969 229.050781 9.699219 231.949219 10.421875 C 234.847656 11.148438 237.730469 11.945312 240.589844 12.8125 C 243.449219 13.683594 246.285156 14.621094 249.101562 15.625 C 251.914062 16.632812 254.703125 17.707031 257.464844 18.851562 C 260.222656 19.996094 262.957031 21.207031 265.65625 22.484375 C 268.359375 23.761719 271.027344 25.105469 273.664062 26.515625 C 276.300781 27.921875 278.898438 29.394531 281.464844 30.933594 C 284.027344 32.46875 286.550781 34.066406 289.035156 35.730469 C 291.523438 37.390625 293.964844 39.109375 296.363281 40.890625 C 298.765625 42.671875 301.121094 44.507812 303.433594 46.40625 C 305.742188 48.300781 308.003906 50.253906 310.21875 52.257812 C 312.433594 54.265625 314.597656 56.328125 316.710938 58.441406 C 318.824219 60.554688 320.882812 62.71875 322.890625 64.933594 C 324.898438 67.148438 326.851562 69.410156 328.746094 71.71875 C 330.644531 74.03125 332.480469 76.386719 334.261719 78.785156 C 336.042969 81.1875 337.761719 83.628906 339.421875 86.113281 C 341.082031 88.601562 342.683594 91.125 344.21875 93.6875 C 345.753906 96.25 347.226562 98.851562 348.636719 101.488281 C 350.046875 104.121094 351.390625 106.792969 352.667969 109.492188 C 353.945312 112.195312 355.15625 114.925781 356.300781 117.6875 C 357.441406 120.449219 358.519531 123.238281 359.523438 126.050781 C 360.53125 128.863281 361.46875 131.703125 362.335938 134.5625 C 363.203125 137.421875 364 140.300781 364.726562 143.203125 C 365.453125 146.101562 366.109375 149.015625 366.691406 151.949219 C 367.273438 154.878906 367.785156 157.824219 368.222656 160.777344 C 368.664062 163.734375 369.027344 166.699219 369.320312 169.675781 C 369.613281 172.648438 369.835938 175.628906 369.980469 178.613281 C 370.128906 181.601562 370.199219 184.585938 370.199219 187.574219 Z M 370.199219 187.574219 "/>
</clipPath>
<linearGradient id="linear0" gradientUnits="userSpaceOnUse" x1="-0.00000000948652" y1="-0.00000000939352" x2="1.004902" y2="0.995049" gradientTransform="matrix(365.249991,0,0,365.249991,4.950687,4.95069)">
<stop offset="0" style="stop-color:rgb(0%,76.899719%,79.998779%);stop-opacity:1;"/>
<stop offset="0.0078125" style="stop-color:rgb(0%,76.713562%,79.951477%);stop-opacity:1;"/>
<stop offset="0.015625" style="stop-color:rgb(0%,76.344299%,79.858398%);stop-opacity:1;"/>
<stop offset="0.0234375" style="stop-color:rgb(0%,75.975037%,79.763794%);stop-opacity:1;"/>
<stop offset="0.03125" style="stop-color:rgb(0%,75.604248%,79.669189%);stop-opacity:1;"/>
<stop offset="0.0390625" style="stop-color:rgb(0%,75.234985%,79.574585%);stop-opacity:1;"/>
<stop offset="0.046875" style="stop-color:rgb(0%,74.865723%,79.481506%);stop-opacity:1;"/>
<stop offset="0.0546875" style="stop-color:rgb(0%,74.494934%,79.386902%);stop-opacity:1;"/>
<stop offset="0.0625" style="stop-color:rgb(0%,74.125671%,79.292297%);stop-opacity:1;"/>
<stop offset="0.0703125" style="stop-color:rgb(0%,73.754883%,79.197693%);stop-opacity:1;"/>
<stop offset="0.078125" style="stop-color:rgb(0%,73.38562%,79.104614%);stop-opacity:1;"/>
<stop offset="0.0859375" style="stop-color:rgb(0%,73.016357%,79.01001%);stop-opacity:1;"/>
<stop offset="0.09375" style="stop-color:rgb(0%,72.645569%,78.915405%);stop-opacity:1;"/>
<stop offset="0.101562" style="stop-color:rgb(0%,72.276306%,78.822327%);stop-opacity:1;"/>
<stop offset="0.109375" style="stop-color:rgb(0%,71.907043%,78.727722%);stop-opacity:1;"/>
<stop offset="0.117188" style="stop-color:rgb(0%,71.536255%,78.633118%);stop-opacity:1;"/>
<stop offset="0.125" style="stop-color:rgb(0%,71.166992%,78.538513%);stop-opacity:1;"/>
<stop offset="0.132812" style="stop-color:rgb(0%,70.797729%,78.445435%);stop-opacity:1;"/>
<stop offset="0.140625" style="stop-color:rgb(0%,70.426941%,78.35083%);stop-opacity:1;"/>
<stop offset="0.148438" style="stop-color:rgb(0%,70.057678%,78.256226%);stop-opacity:1;"/>
<stop offset="0.15625" style="stop-color:rgb(0%,69.688416%,78.161621%);stop-opacity:1;"/>
<stop offset="0.164062" style="stop-color:rgb(0%,69.317627%,78.068542%);stop-opacity:1;"/>
<stop offset="0.171875" style="stop-color:rgb(0%,68.948364%,77.973938%);stop-opacity:1;"/>
<stop offset="0.179688" style="stop-color:rgb(0%,68.579102%,77.879333%);stop-opacity:1;"/>
<stop offset="0.1875" style="stop-color:rgb(0%,68.208313%,77.786255%);stop-opacity:1;"/>
<stop offset="0.195312" style="stop-color:rgb(0%,67.83905%,77.69165%);stop-opacity:1;"/>
<stop offset="0.203125" style="stop-color:rgb(0%,67.468262%,77.597046%);stop-opacity:1;"/>
<stop offset="0.210937" style="stop-color:rgb(0%,67.098999%,77.502441%);stop-opacity:1;"/>
<stop offset="0.21875" style="stop-color:rgb(0%,66.729736%,77.409363%);stop-opacity:1;"/>
<stop offset="0.226562" style="stop-color:rgb(0%,66.358948%,77.314758%);stop-opacity:1;"/>
<stop offset="0.234375" style="stop-color:rgb(0%,65.989685%,77.220154%);stop-opacity:1;"/>
<stop offset="0.242188" style="stop-color:rgb(0%,65.620422%,77.125549%);stop-opacity:1;"/>
<stop offset="0.25" style="stop-color:rgb(0%,65.249634%,77.032471%);stop-opacity:1;"/>
<stop offset="0.257812" style="stop-color:rgb(0%,64.880371%,76.937866%);stop-opacity:1;"/>
<stop offset="0.265625" style="stop-color:rgb(0%,64.511108%,76.843262%);stop-opacity:1;"/>
<stop offset="0.273437" style="stop-color:rgb(0%,64.14032%,76.750183%);stop-opacity:1;"/>
<stop offset="0.28125" style="stop-color:rgb(0%,63.771057%,76.655579%);stop-opacity:1;"/>
<stop offset="0.289062" style="stop-color:rgb(0%,63.401794%,76.560974%);stop-opacity:1;"/>
<stop offset="0.296875" style="stop-color:rgb(0%,63.031006%,76.46637%);stop-opacity:1;"/>
<stop offset="0.304688" style="stop-color:rgb(0%,62.661743%,76.373291%);stop-opacity:1;"/>
<stop offset="0.3125" style="stop-color:rgb(0%,62.29248%,76.278687%);stop-opacity:1;"/>
<stop offset="0.320312" style="stop-color:rgb(0%,61.921692%,76.184082%);stop-opacity:1;"/>
<stop offset="0.328125" style="stop-color:rgb(0%,61.552429%,76.089478%);stop-opacity:1;"/>
<stop offset="0.335937" style="stop-color:rgb(0%,61.181641%,75.996399%);stop-opacity:1;"/>
<stop offset="0.34375" style="stop-color:rgb(0%,60.812378%,75.901794%);stop-opacity:1;"/>
<stop offset="0.351562" style="stop-color:rgb(0%,60.443115%,75.80719%);stop-opacity:1;"/>
<stop offset="0.359375" style="stop-color:rgb(0%,60.072327%,75.714111%);stop-opacity:1;"/>
<stop offset="0.367187" style="stop-color:rgb(0%,59.703064%,75.619507%);stop-opacity:1;"/>
<stop offset="0.375" style="stop-color:rgb(0%,59.333801%,75.524902%);stop-opacity:1;"/>
<stop offset="0.382812" style="stop-color:rgb(0%,58.963013%,75.430298%);stop-opacity:1;"/>
<stop offset="0.390625" style="stop-color:rgb(0%,58.59375%,75.337219%);stop-opacity:1;"/>
<stop offset="0.398438" style="stop-color:rgb(0%,58.224487%,75.242615%);stop-opacity:1;"/>
<stop offset="0.40625" style="stop-color:rgb(0%,57.853699%,75.14801%);stop-opacity:1;"/>
<stop offset="0.414062" style="stop-color:rgb(0%,57.484436%,75.053406%);stop-opacity:1;"/>
<stop offset="0.421875" style="stop-color:rgb(0%,57.115173%,74.960327%);stop-opacity:1;"/>
<stop offset="0.429687" style="stop-color:rgb(0%,56.744385%,74.865723%);stop-opacity:1;"/>
<stop offset="0.4375" style="stop-color:rgb(0%,56.375122%,74.771118%);stop-opacity:1;"/>
<stop offset="0.445312" style="stop-color:rgb(0%,56.004333%,74.67804%);stop-opacity:1;"/>
<stop offset="0.453125" style="stop-color:rgb(0%,55.635071%,74.583435%);stop-opacity:1;"/>
<stop offset="0.460937" style="stop-color:rgb(0%,55.265808%,74.488831%);stop-opacity:1;"/>
<stop offset="0.46875" style="stop-color:rgb(0%,54.89502%,74.394226%);stop-opacity:1;"/>
<stop offset="0.476562" style="stop-color:rgb(0%,54.525757%,74.301147%);stop-opacity:1;"/>
<stop offset="0.484375" style="stop-color:rgb(0%,54.156494%,74.206543%);stop-opacity:1;"/>
<stop offset="0.492187" style="stop-color:rgb(0%,53.785706%,74.111938%);stop-opacity:1;"/>
<stop offset="0.497537" style="stop-color:rgb(0%,53.416443%,74.017334%);stop-opacity:1;"/>
<stop offset="0.5" style="stop-color:rgb(0%,53.231812%,73.971558%);stop-opacity:1;"/>
<stop offset="0.502463" style="stop-color:rgb(0%,53.04718%,73.924255%);stop-opacity:1;"/>
<stop offset="0.507813" style="stop-color:rgb(0%,52.862549%,73.876953%);stop-opacity:1;"/>
<stop offset="0.515625" style="stop-color:rgb(0%,52.676392%,73.829651%);stop-opacity:1;"/>
<stop offset="0.523438" style="stop-color:rgb(0%,52.307129%,73.735046%);stop-opacity:1;"/>
<stop offset="0.53125" style="stop-color:rgb(0%,51.937866%,73.641968%);stop-opacity:1;"/>
<stop offset="0.539063" style="stop-color:rgb(0%,51.567078%,73.547363%);stop-opacity:1;"/>
<stop offset="0.546875" style="stop-color:rgb(0%,51.197815%,73.452759%);stop-opacity:1;"/>
<stop offset="0.554688" style="stop-color:rgb(0%,50.828552%,73.358154%);stop-opacity:1;"/>
<stop offset="0.5625" style="stop-color:rgb(0%,50.457764%,73.265076%);stop-opacity:1;"/>
<stop offset="0.570313" style="stop-color:rgb(0%,50.088501%,73.170471%);stop-opacity:1;"/>
<stop offset="0.578125" style="stop-color:rgb(0%,49.717712%,73.075867%);stop-opacity:1;"/>
<stop offset="0.585938" style="stop-color:rgb(0%,49.34845%,72.982788%);stop-opacity:1;"/>
<stop offset="0.59375" style="stop-color:rgb(0%,48.979187%,72.888184%);stop-opacity:1;"/>
<stop offset="0.601562" style="stop-color:rgb(0%,48.608398%,72.793579%);stop-opacity:1;"/>
<stop offset="0.609375" style="stop-color:rgb(0%,48.239136%,72.698975%);stop-opacity:1;"/>
<stop offset="0.617188" style="stop-color:rgb(0%,47.869873%,72.605896%);stop-opacity:1;"/>
<stop offset="0.625" style="stop-color:rgb(0%,47.499084%,72.511292%);stop-opacity:1;"/>
<stop offset="0.632812" style="stop-color:rgb(0%,47.129822%,72.416687%);stop-opacity:1;"/>
<stop offset="0.640625" style="stop-color:rgb(0%,46.760559%,72.322083%);stop-opacity:1;"/>
<stop offset="0.648437" style="stop-color:rgb(0%,46.389771%,72.229004%);stop-opacity:1;"/>
<stop offset="0.65625" style="stop-color:rgb(0%,46.020508%,72.134399%);stop-opacity:1;"/>
<stop offset="0.664062" style="stop-color:rgb(0%,45.651245%,72.039795%);stop-opacity:1;"/>
<stop offset="0.671875" style="stop-color:rgb(0%,45.280457%,71.946716%);stop-opacity:1;"/>
<stop offset="0.679687" style="stop-color:rgb(0%,44.911194%,71.852112%);stop-opacity:1;"/>
<stop offset="0.6875" style="stop-color:rgb(0%,44.540405%,71.757507%);stop-opacity:1;"/>
<stop offset="0.695312" style="stop-color:rgb(0%,44.171143%,71.662903%);stop-opacity:1;"/>
<stop offset="0.703125" style="stop-color:rgb(0%,43.80188%,71.569824%);stop-opacity:1;"/>
<stop offset="0.710937" style="stop-color:rgb(0%,43.431091%,71.47522%);stop-opacity:1;"/>
<stop offset="0.71875" style="stop-color:rgb(0%,43.061829%,71.380615%);stop-opacity:1;"/>
<stop offset="0.726562" style="stop-color:rgb(0%,42.692566%,71.286011%);stop-opacity:1;"/>
<stop offset="0.734375" style="stop-color:rgb(0%,42.321777%,71.192932%);stop-opacity:1;"/>
<stop offset="0.742187" style="stop-color:rgb(0%,41.952515%,71.098328%);stop-opacity:1;"/>
<stop offset="0.75" style="stop-color:rgb(0%,41.583252%,71.003723%);stop-opacity:1;"/>
<stop offset="0.757812" style="stop-color:rgb(0%,41.212463%,70.910645%);stop-opacity:1;"/>
<stop offset="0.765625" style="stop-color:rgb(0%,40.843201%,70.81604%);stop-opacity:1;"/>
<stop offset="0.773437" style="stop-color:rgb(0%,40.473938%,70.721436%);stop-opacity:1;"/>
<stop offset="0.78125" style="stop-color:rgb(0%,40.103149%,70.626831%);stop-opacity:1;"/>
<stop offset="0.789062" style="stop-color:rgb(0%,39.733887%,70.533752%);stop-opacity:1;"/>
<stop offset="0.796875" style="stop-color:rgb(0%,39.364624%,70.439148%);stop-opacity:1;"/>
<stop offset="0.804687" style="stop-color:rgb(0%,38.993835%,70.344543%);stop-opacity:1;"/>
<stop offset="0.8125" style="stop-color:rgb(0%,38.624573%,70.249939%);stop-opacity:1;"/>
<stop offset="0.820312" style="stop-color:rgb(0%,38.253784%,70.15686%);stop-opacity:1;"/>
<stop offset="0.828125" style="stop-color:rgb(0%,37.884521%,70.062256%);stop-opacity:1;"/>
<stop offset="0.835938" style="stop-color:rgb(0%,37.515259%,69.967651%);stop-opacity:1;"/>
<stop offset="0.84375" style="stop-color:rgb(0%,37.14447%,69.874573%);stop-opacity:1;"/>
<stop offset="0.851563" style="stop-color:rgb(0%,36.775208%,69.779968%);stop-opacity:1;"/>
<stop offset="0.859375" style="stop-color:rgb(0%,36.405945%,69.685364%);stop-opacity:1;"/>
<stop offset="0.867188" style="stop-color:rgb(0%,36.035156%,69.590759%);stop-opacity:1;"/>
<stop offset="0.875" style="stop-color:rgb(0%,35.665894%,69.497681%);stop-opacity:1;"/>
<stop offset="0.882813" style="stop-color:rgb(0%,35.296631%,69.403076%);stop-opacity:1;"/>
<stop offset="0.890625" style="stop-color:rgb(0%,34.925842%,69.308472%);stop-opacity:1;"/>
<stop offset="0.898438" style="stop-color:rgb(0%,34.55658%,69.213867%);stop-opacity:1;"/>
<stop offset="0.90625" style="stop-color:rgb(0%,34.187317%,69.120789%);stop-opacity:1;"/>
<stop offset="0.914063" style="stop-color:rgb(0%,33.816528%,69.026184%);stop-opacity:1;"/>
<stop offset="0.921875" style="stop-color:rgb(0%,33.447266%,68.93158%);stop-opacity:1;"/>
<stop offset="0.929688" style="stop-color:rgb(0%,33.078003%,68.838501%);stop-opacity:1;"/>
<stop offset="0.9375" style="stop-color:rgb(0%,32.707214%,68.743896%);stop-opacity:1;"/>
<stop offset="0.945313" style="stop-color:rgb(0%,32.337952%,68.649292%);stop-opacity:1;"/>
<stop offset="0.953125" style="stop-color:rgb(0%,31.967163%,68.554688%);stop-opacity:1;"/>
<stop offset="0.960938" style="stop-color:rgb(0%,31.5979%,68.461609%);stop-opacity:1;"/>
<stop offset="0.96875" style="stop-color:rgb(0%,31.228638%,68.367004%);stop-opacity:1;"/>
<stop offset="0.976562" style="stop-color:rgb(0%,30.857849%,68.2724%);stop-opacity:1;"/>
<stop offset="0.984375" style="stop-color:rgb(0%,30.488586%,68.177795%);stop-opacity:1;"/>
<stop offset="0.992188" style="stop-color:rgb(0%,30.119324%,68.084717%);stop-opacity:1;"/>
<stop offset="1" style="stop-color:rgb(0%,29.748535%,67.990112%);stop-opacity:1;"/>
</linearGradient>
<clipPath id="clip3">
  <path d="M 69 152 L 306 152 L 306 311.6875 L 69 311.6875 Z M 69 152 "/>
</clipPath>
<clipPath id="clip4">
  <path d="M 178 63.4375 L 211 63.4375 L 211 97 L 178 97 Z M 178 63.4375 "/>
</clipPath>
</defs>
<g id="surface1">
<rect x="0" y="0" width="375" height="374.999991" style="fill:rgb(100%,100%,100%);fill-opacity:1;stroke:none;"/>
<rect x="0" y="0" width="375" height="374.999991" style="fill:rgb(100%,100%,100%);fill-opacity:1;stroke:none;"/>
<rect x="0" y="0" width="375" height="374.999991" style="fill:rgb(100%,100%,100%);fill-opacity:1;stroke:none;"/>
<g clip-path="url(#clip1)" clip-rule="nonzero">
<g clip-path="url(#clip2)" clip-rule="nonzero">
<path style=" stroke:none;fill-rule:nonzero;fill:url(#linear0);" d="M 4.949219 4.949219 L 4.949219 370.199219 L 370.199219 370.199219 L 370.199219 4.949219 Z M 4.949219 4.949219 "/>
</g>
</g>
<path style=" stroke:none;fill-rule:nonzero;fill:rgb(100%,100%,100%);fill-opacity:1;" d="M 187.527344 290.898438 C 186.886719 290.898438 186.246094 290.675781 185.734375 290.222656 C 185.277344 289.835938 154.449219 263.808594 91.300781 263.808594 C 90.585938 263.808594 89.859375 263.808594 89.132812 263.820312 C 89.125 263.820312 89.113281 263.820312 89.105469 263.820312 C 88.347656 263.820312 87.632812 263.5 87.109375 262.949219 C 86.59375 262.386719 86.335938 261.632812 86.390625 260.867188 L 96.425781 142.21875 C 96.542969 140.804688 97.722656 139.71875 99.128906 139.71875 L 125.9375 139.71875 C 127.449219 139.71875 128.660156 140.941406 128.660156 142.441406 C 128.660156 143.949219 127.449219 145.160156 125.9375 145.160156 L 101.636719 145.160156 L 92.066406 258.371094 C 157.035156 258.554688 188.011719 284.984375 189.316406 286.128906 C 190.449219 287.125 190.566406 288.835938 189.578125 289.96875 C 189.035156 290.589844 188.28125 290.898438 187.527344 290.898438 "/>
<g clip-path="url(#clip3)" clip-rule="nonzero">
<path style=" stroke:none;fill-rule:nonzero;fill:rgb(100%,100%,100%);fill-opacity:1;" d="M 187.527344 311.6875 C 175.671875 311.6875 165.125 305.136719 160 294.605469 C 159.613281 293.800781 159.3125 293.125 159.097656 292.582031 C 122.691406 277.6875 94.78125 278.316406 81.308594 280.03125 C 78.054688 280.445312 74.847656 279.390625 72.484375 277.128906 C 70.109375 274.863281 68.910156 271.6875 69.179688 268.425781 L 78.015625 162.78125 C 78.507812 156.964844 83.398438 152.609375 89.238281 152.890625 C 93.90625 153.105469 97.125 153.703125 99.058594 154.703125 C 100.398438 155.390625 100.921875 157.023438 100.230469 158.359375 C 99.542969 159.695312 97.898438 160.21875 96.5625 159.53125 C 96.019531 159.25 94.179688 158.574219 88.988281 158.320312 C 86.148438 158.1875 83.679688 160.34375 83.4375 163.238281 L 74.605469 268.871094 C 74.480469 270.496094 75.070312 272.074219 76.242188 273.207031 C 77.414062 274.320312 79.023438 274.84375 80.621094 274.640625 C 94.761719 272.839844 124.183594 272.171875 162.296875 288.015625 C 163.03125 288.324219 163.601562 288.953125 163.84375 289.71875 C 163.84375 289.726562 164.164062 290.714844 164.890625 292.226562 C 169.105469 300.875 177.773438 306.25 187.527344 306.25 C 197.277344 306.25 205.945312 300.875 210.148438 292.226562 C 210.886719 290.714844 211.207031 289.726562 211.207031 289.71875 C 211.457031 288.953125 212.019531 288.324219 212.753906 288.015625 C 250.867188 272.164062 280.28125 272.832031 294.429688 274.640625 C 296.050781 274.84375 297.636719 274.320312 298.808594 273.199219 C 299.980469 272.074219 300.570312 270.496094 300.4375 268.871094 L 291.601562 163.238281 C 291.371094 160.34375 288.890625 158.1875 286.0625 158.320312 C 280.871094 158.574219 279.03125 159.25 278.488281 159.53125 C 277.152344 160.21875 275.507812 159.695312 274.820312 158.359375 C 274.132812 157.023438 274.652344 155.390625 275.992188 154.703125 C 277.929688 153.703125 281.144531 153.105469 285.8125 152.890625 C 291.691406 152.628906 296.542969 156.964844 297.035156 162.78125 L 305.871094 268.425781 C 306.140625 271.6875 304.941406 274.863281 302.578125 277.128906 C 300.203125 279.390625 296.988281 280.445312 293.742188 280.03125 C 280.273438 278.316406 252.359375 277.6875 215.953125 292.582031 C 215.738281 293.125 215.4375 293.800781 215.050781 294.605469 C 209.925781 305.136719 199.378906 311.6875 187.527344 311.6875 "/>
</g>
<path style=" stroke:none;fill-rule:nonzero;fill:rgb(100%,100%,100%);fill-opacity:1;" d="M 187.527344 290.898438 C 187.136719 290.898438 186.761719 290.820312 186.402344 290.65625 C 185.433594 290.210938 184.804688 289.242188 184.804688 288.179688 L 184.804688 255.71875 C 184.804688 254.21875 186.023438 253 187.527344 253 C 189.027344 253 190.246094 254.21875 190.246094 255.71875 L 190.246094 282.730469 C 201.046875 275.328125 231.234375 258.527344 282.984375 258.371094 L 273.414062 145.160156 L 255.390625 145.160156 C 253.890625 145.160156 252.679688 143.949219 252.679688 142.441406 C 252.679688 140.941406 253.890625 139.71875 255.390625 139.71875 L 275.921875 139.71875 C 277.328125 139.71875 278.507812 140.804688 278.625 142.21875 L 288.660156 260.867188 C 288.71875 261.632812 288.457031 262.386719 287.933594 262.949219 C 287.410156 263.511719 286.605469 263.828125 285.917969 263.820312 C 285.191406 263.808594 284.464844 263.808594 283.75 263.808594 C 220.445312 263.808594 189.617188 289.960938 189.316406 290.230469 C 188.8125 290.667969 188.175781 290.898438 187.527344 290.898438 "/>
<path style=" stroke:none;fill-rule:nonzero;fill:rgb(100%,100%,100%);fill-opacity:1;" d="M 154.886719 108.46875 C 154.101562 108.46875 153.308594 108.527344 152.511719 108.652344 C 148.457031 109.273438 144.890625 111.441406 142.46875 114.742188 C 140.046875 118.050781 139.0625 122.097656 139.679688 126.152344 C 140.300781 130.195312 142.46875 133.757812 145.773438 136.1875 C 149.085938 138.605469 153.132812 139.59375 157.191406 138.976562 C 161.238281 138.347656 164.804688 136.1875 167.234375 132.878906 C 169.65625 129.578125 170.644531 125.523438 170.023438 121.476562 C 169.40625 117.433594 167.234375 113.859375 163.921875 111.441406 C 161.269531 109.496094 158.121094 108.46875 154.886719 108.46875 Z M 154.808594 144.597656 C 150.421875 144.597656 146.160156 143.214844 142.558594 140.570312 C 138.074219 137.292969 135.148438 132.460938 134.296875 126.972656 C 133.453125 121.488281 134.800781 116.007812 138.082031 111.527344 C 141.367188 107.058594 146.199219 104.125 151.679688 103.273438 C 157.171875 102.429688 162.664062 103.777344 167.148438 107.058594 C 171.621094 110.339844 174.558594 115.167969 175.398438 120.65625 C 176.253906 126.132812 174.90625 131.621094 171.621094 136.101562 C 168.339844 140.570312 163.507812 143.503906 158.015625 144.347656 C 156.941406 144.511719 155.875 144.597656 154.808594 144.597656 "/>
<path style=" stroke:none;fill-rule:nonzero;fill:rgb(100%,100%,100%);fill-opacity:1;" d="M 239.148438 182.292969 C 238.363281 182.292969 237.570312 182.359375 236.773438 182.476562 C 228.417969 183.765625 222.652344 191.613281 223.941406 199.976562 C 225.230469 208.335938 233.085938 214.085938 241.453125 212.796875 C 245.511719 212.179688 249.074219 210.011719 251.496094 206.710938 C 253.917969 203.402344 254.90625 199.355469 254.285156 195.300781 C 253.667969 191.253906 251.496094 187.695312 248.195312 185.265625 C 245.53125 183.320312 242.382812 182.292969 239.148438 182.292969 Z M 239.097656 218.421875 C 229.015625 218.421875 220.144531 211.054688 218.566406 200.808594 C 216.824219 189.472656 224.621094 178.847656 235.953125 177.105469 C 241.433594 176.253906 246.925781 177.601562 251.410156 180.878906 C 255.894531 184.160156 258.820312 188.992188 259.660156 194.476562 C 260.515625 199.964844 259.167969 205.441406 255.882812 209.925781 C 252.601562 214.394531 247.769531 217.328125 242.285156 218.179688 C 241.210938 218.34375 240.144531 218.421875 239.097656 218.421875 "/>
<path style=" stroke:none;fill-rule:nonzero;fill:rgb(100%,100%,100%);fill-opacity:1;" d="M 188.476562 151.363281 C 187.960938 151.363281 187.449219 151.402344 186.933594 151.480469 C 181.472656 152.320312 177.722656 157.429688 178.566406 162.878906 C 179.398438 168.328125 184.523438 172.074219 189.976562 171.242188 C 192.621094 170.835938 194.945312 169.421875 196.523438 167.273438 C 198.101562 165.113281 198.75 162.484375 198.34375 159.839844 C 197.9375 157.199219 196.523438 154.875 194.375 153.296875 C 192.628906 152.03125 190.585938 151.363281 188.476562 151.363281 Z M 188.445312 176.796875 C 180.949219 176.796875 174.363281 171.328125 173.183594 163.710938 C 171.894531 155.300781 177.683594 147.40625 186.101562 146.109375 C 190.1875 145.480469 194.265625 146.476562 197.589844 148.914062 C 200.921875 151.351562 203.097656 154.933594 203.71875 159.007812 C 204.347656 163.082031 203.351562 167.15625 200.910156 170.488281 C 198.46875 173.816406 194.886719 175.992188 190.808594 176.613281 C 190.015625 176.738281 189.21875 176.796875 188.445312 176.796875 "/>
<g clip-path="url(#clip4)" clip-rule="nonzero">
<path style=" stroke:none;fill-rule:nonzero;fill:rgb(100%,100%,100%);fill-opacity:1;" d="M 194.539062 69.371094 C 193.976562 69.371094 193.40625 69.421875 192.84375 69.507812 C 186.828125 70.425781 182.691406 76.070312 183.621094 82.070312 C 184.066406 84.972656 185.617188 87.535156 188 89.277344 C 190.375 91.011719 193.289062 91.726562 196.195312 91.28125 C 199.097656 90.828125 201.667969 89.277344 203.410156 86.90625 C 205.144531 84.535156 205.859375 81.625 205.414062 78.71875 C 204.960938 75.808594 203.410156 73.253906 201.035156 71.511719 C 199.117188 70.105469 196.863281 69.371094 194.539062 69.371094 Z M 194.480469 96.847656 C 191.011719 96.847656 187.632812 95.753906 184.785156 93.664062 C 181.230469 91.070312 178.914062 87.238281 178.238281 82.902344 C 176.863281 73.929688 183.042969 65.511719 192.011719 64.125 C 196.359375 63.457031 200.707031 64.523438 204.253906 67.125 C 207.796875 69.71875 210.121094 73.542969 210.789062 77.886719 C 211.457031 82.234375 210.390625 86.578125 207.796875 90.121094 C 205.203125 93.664062 201.375 95.984375 197.027344 96.652344 C 196.175781 96.789062 195.320312 96.847656 194.480469 96.847656 "/>
</g>
<path style=" stroke:none;fill-rule:nonzero;fill:rgb(100%,100%,100%);fill-opacity:1;" d="M 176.398438 214.550781 C 175.84375 214.550781 175.285156 214.589844 174.722656 214.675781 C 171.804688 215.128906 169.25 216.679688 167.507812 219.050781 C 165.761719 221.421875 165.046875 224.335938 165.5 227.238281 C 165.945312 230.152344 167.507812 232.707031 169.878906 234.449219 C 172.253906 236.191406 175.167969 236.90625 178.074219 236.449219 C 184.078125 235.53125 188.214844 229.890625 187.292969 223.890625 C 186.449219 218.449219 181.742188 214.550781 176.398438 214.550781 Z M 178.488281 239.140625 L 178.5 239.140625 Z M 176.359375 242.027344 C 172.882812 242.027344 169.511719 240.921875 166.664062 238.832031 C 163.109375 236.238281 160.792969 232.414062 160.125 228.070312 C 159.449219 223.722656 160.511719 219.378906 163.117188 215.835938 C 165.714844 212.296875 169.539062 209.972656 173.890625 209.304688 C 182.867188 207.921875 191.292969 214.09375 192.667969 223.058594 C 194.054688 232.027344 187.875 240.449219 178.90625 241.820312 C 178.054688 241.957031 177.199219 242.027344 176.359375 242.027344 "/>
<path style=" stroke:none;fill-rule:nonzero;fill:rgb(100%,100%,100%);fill-opacity:1;" d="M 233.171875 112.601562 C 232.511719 112.601562 231.84375 112.652344 231.175781 112.757812 C 227.730469 113.289062 224.6875 115.128906 222.625 117.933594 C 220.570312 120.75 219.71875 124.195312 220.253906 127.640625 C 220.785156 131.085938 222.625 134.117188 225.445312 136.179688 C 228.253906 138.238281 231.699219 139.089844 235.148438 138.558594 C 242.265625 137.457031 247.167969 130.777344 246.074219 123.664062 C 245.074219 117.230469 239.507812 112.601562 233.171875 112.601562 Z M 235.566406 141.238281 L 235.582031 141.238281 Z M 233.125 144.152344 C 229.21875 144.152344 225.425781 142.914062 222.21875 140.570312 C 218.238281 137.648438 215.632812 133.351562 214.875 128.472656 C 214.121094 123.585938 215.324219 118.710938 218.238281 114.722656 C 221.164062 110.746094 225.460938 108.132812 230.34375 107.386719 C 240.4375 105.828125 249.898438 112.765625 251.449219 122.84375 C 252.996094 132.917969 246.0625 142.382812 235.980469 143.929688 C 235.023438 144.074219 234.074219 144.152344 233.125 144.152344 "/>
<path style=" stroke:none;fill-rule:nonzero;fill:rgb(100%,100%,100%);fill-opacity:1;" d="M 132.320312 185.738281 C 131.804688 185.738281 131.285156 185.777344 130.769531 185.855469 C 125.277344 186.707031 121.492188 191.855469 122.34375 197.34375 C 123.1875 202.828125 128.347656 206.605469 133.832031 205.753906 C 139.320312 204.910156 143.097656 199.761719 142.257812 194.273438 C 141.851562 191.613281 140.425781 189.28125 138.257812 187.695312 C 136.511719 186.40625 134.449219 185.738281 132.320312 185.738281 Z M 132.289062 211.316406 C 124.765625 211.316406 118.148438 205.820312 116.957031 198.164062 C 115.660156 189.714844 121.480469 181.78125 129.9375 180.484375 C 134.042969 179.855469 138.128906 180.851562 141.472656 183.300781 C 144.824219 185.75 147.003906 189.347656 147.632812 193.453125 C 148.941406 201.902344 143.117188 209.835938 134.664062 211.132812 C 133.871094 211.257812 133.074219 211.316406 132.289062 211.316406 "/>
<path style=" stroke:none;fill-rule:nonzero;fill:rgb(100%,100%,100%);fill-opacity:1;" d="M 223.417969 115.980469 C 222.632812 115.980469 221.859375 115.640625 221.328125 114.992188 L 202.148438 91.804688 C 201.191406 90.644531 201.355469 88.929688 202.519531 87.972656 C 203.679688 87.015625 205.394531 87.179688 206.34375 88.339844 L 225.519531 111.527344 C 226.480469 112.679688 226.316406 114.402344 225.152344 115.359375 C 224.648438 115.777344 224.03125 115.980469 223.417969 115.980469 "/>
<path style=" stroke:none;fill-rule:nonzero;fill:rgb(100%,100%,100%);fill-opacity:1;" d="M 198.519531 156.296875 C 197.734375 156.296875 196.960938 155.960938 196.425781 155.3125 C 195.457031 154.160156 195.621094 152.445312 196.773438 151.488281 L 218.875 133.128906 C 220.03125 132.171875 221.753906 132.328125 222.710938 133.488281 C 223.671875 134.640625 223.515625 136.351562 222.355469 137.320312 L 200.253906 155.667969 C 199.75 156.09375 199.128906 156.296875 198.519531 156.296875 "/>
<path style=" stroke:none;fill-rule:nonzero;fill:rgb(100%,100%,100%);fill-opacity:1;" d="M 179.078125 155.484375 C 178.355469 155.484375 177.628906 155.195312 177.09375 154.625 L 163.59375 140.195312 C 162.566406 139.101562 162.625 137.378906 163.71875 136.351562 C 164.8125 135.328125 166.539062 135.382812 167.5625 136.476562 L 181.066406 150.90625 C 182.09375 152.011719 182.035156 153.722656 180.941406 154.75 C 180.417969 155.242188 179.75 155.484375 179.078125 155.484375 "/>
<path style=" stroke:none;fill-rule:nonzero;fill:rgb(100%,100%,100%);fill-opacity:1;" d="M 132.746094 185.75 C 132.492188 185.75 132.25 185.71875 131.992188 185.652344 C 130.558594 185.234375 129.714844 183.726562 130.128906 182.285156 L 142.742188 138.421875 C 143.15625 136.972656 144.660156 136.148438 146.101562 136.554688 C 147.554688 136.972656 148.386719 138.480469 147.972656 139.921875 L 135.359375 183.785156 C 135.023438 184.972656 133.9375 185.75 132.746094 185.75 "/>
<path style=" stroke:none;fill-rule:nonzero;fill:rgb(100%,100%,100%);fill-opacity:1;" d="M 223.804688 190.789062 C 223.246094 190.789062 222.683594 190.617188 222.199219 190.269531 L 196.640625 171.65625 C 195.429688 170.777344 195.15625 169.074219 196.046875 167.863281 C 196.929688 166.644531 198.632812 166.382812 199.84375 167.261719 L 225.40625 185.875 C 226.625 186.753906 226.886719 188.457031 226.003906 189.667969 C 225.472656 190.402344 224.640625 190.789062 223.804688 190.789062 "/>
<path style=" stroke:none;fill-rule:nonzero;fill:rgb(100%,100%,100%);fill-opacity:1;" d="M 144.386719 192.929688 C 143.410156 192.929688 142.46875 192.398438 141.976562 191.476562 C 141.277344 190.152344 141.78125 188.507812 143.117188 187.800781 L 179.175781 168.820312 C 180.503906 168.125 182.148438 168.628906 182.847656 169.953125 C 183.554688 171.289062 183.042969 172.933594 181.714844 173.632812 L 145.65625 192.621094 C 145.25 192.832031 144.8125 192.929688 144.386719 192.929688 "/>
<path style=" stroke:none;fill-rule:nonzero;fill:rgb(100%,100%,100%);fill-opacity:1;" d="M 189.976562 226.191406 C 189.007812 226.191406 188.066406 225.667969 187.574219 224.75 C 186.867188 223.425781 187.378906 221.777344 188.699219 221.074219 L 221.773438 203.496094 C 223.089844 202.792969 224.746094 203.285156 225.453125 204.621094 C 226.160156 205.945312 225.65625 207.589844 224.328125 208.296875 L 191.253906 225.871094 C 190.855469 226.09375 190.410156 226.191406 189.976562 226.191406 "/>
<path style=" stroke:none;fill-rule:nonzero;fill:rgb(100%,100%,100%);fill-opacity:1;" d="M 164.214844 221.945312 C 163.738281 221.945312 163.253906 221.816406 162.808594 221.546875 L 139.59375 207.503906 C 138.316406 206.730469 137.898438 205.054688 138.671875 203.769531 C 139.457031 202.480469 141.132812 202.074219 142.410156 202.847656 L 165.628906 216.890625 C 166.914062 217.675781 167.320312 219.339844 166.546875 220.628906 C 166.035156 221.480469 165.132812 221.945312 164.214844 221.945312 "/>
<path style=" stroke:none;fill-rule:nonzero;fill:rgb(100%,100%,100%);fill-opacity:1;" d="M 165.347656 111.847656 C 164.6875 111.847656 164.027344 111.605469 163.507812 111.121094 C 162.402344 110.105469 162.335938 108.382812 163.351562 107.28125 L 181.878906 87.226562 C 182.90625 86.125 184.621094 86.066406 185.722656 87.082031 C 186.828125 88.097656 186.894531 89.820312 185.878906 90.925781 L 167.351562 110.96875 C 166.820312 111.546875 166.082031 111.847656 165.347656 111.847656 "/>
</g>
</svg>
